<?xml version="1.0" standalone="no"?>
<!DOCTYPE svg PUBLIC "-//W3C//DTD SVG 20010904//EN"
 "http://www.w3.org/TR/2001/REC-SVG-20010904/DTD/svg10.dtd">
<svg version="1.0" xmlns="http://www.w3.org/2000/svg"
 width="60.000000pt" height="60.000000pt" viewBox="0 0 512.000000 512.000000"
 preserveAspectRatio="xMidYMid meet">

<g transform="translate(0.000000,512.000000) scale(0.100000,-0.100000)"
fill="#000000" stroke="none">
<path d="M2265 4455 c-34 -33 -31 -63 14 -153 21 -42 41 -98 45 -125 9 -60 57
-125 113 -152 l42 -20 1 -82 0 -83 -95 0 c-88 0 -98 -2 -120 -25 -33 -32 -32
-52 10 -175 41 -122 42 -142 12 -355 -14 -97 -21 -177 -17 -202 l7 -43 -200 0
c-186 0 -199 1 -192 18 41 99 45 163 10 197 l-24 25 -351 0 -351 0 -26 -26
c-23 -23 -25 -31 -20 -82 3 -32 19 -82 36 -116 l30 -61 -23 -25 c-37 -39 -63
-99 -76 -177 l-12 -73 -249 0 c-198 0 -249 3 -249 13 0 53 -81 948 -88 972
-33 111 -137 227 -239 265 -32 12 -90 24 -130 27 -67 5 -73 4 -97 -20 -14 -14
-26 -35 -26 -46 0 -10 36 -449 80 -975 l80 -955 -80 -640 c-44 -352 -80 -647
-80 -656 0 -9 11 -27 25 -40 23 -24 28 -25 173 -25 130 0 153 2 172 18 21 17
35 82 139 638 l116 619 199 3 c163 2 209 -1 250 -14 28 -9 55 -20 60 -25 5 -4
59 -277 121 -605 100 -536 114 -599 135 -616 19 -16 42 -18 172 -18 145 0 150
1 173 25 14 13 25 31 25 40 0 9 -29 250 -65 535 -36 285 -65 521 -65 525 0 3
51 3 113 -1 133 -8 319 8 470 40 l107 22 0 -318 c0 -262 -2 -318 -14 -318 -32
0 -156 -73 -196 -116 -86 -94 -137 -268 -94 -322 21 -26 134 -62 279 -89 124
-23 406 -23 530 0 145 27 258 63 279 89 43 54 -8 228 -94 322 -40 43 -164 116
-196 116 -12 0 -14 56 -14 318 l0 319 102 -23 c143 -32 321 -48 466 -40 l124
6 -6 -38 c-10 -64 -126 -1005 -126 -1025 0 -10 11 -29 25 -42 23 -24 28 -25
173 -25 130 0 153 2 172 18 21 17 34 79 131 598 60 318 111 589 114 601 4 15
21 28 61 42 51 20 73 21 257 19 l202 -3 116 -619 c104 -556 118 -621 139 -638
19 -16 42 -18 172 -18 145 0 150 1 173 25 14 13 25 31 25 38 0 8 -36 305 -80
659 l-80 645 80 949 c44 522 80 959 80 972 0 13 -12 35 -26 49 -24 24 -30 25
-97 20 -40 -3 -98 -15 -130 -27 -102 -38 -206 -154 -239 -265 -7 -24 -88 -919
-88 -972 0 -10 -51 -13 -249 -13 l-249 0 -12 73 c-13 78 -39 138 -76 177 l-23
25 30 61 c17 34 33 84 36 116 5 51 3 59 -20 82 l-26 26 -351 0 -351 0 -24 -25
c-35 -34 -31 -98 10 -197 7 -17 -6 -18 -192 -18 l-200 0 7 43 c4 25 -3 105
-17 202 -30 213 -29 233 12 355 42 123 43 143 10 175 -22 23 -32 25 -120 25
l-95 0 0 83 1 82 42 20 c56 27 104 92 113 152 4 27 24 83 45 125 45 90 48 120
14 153 l-24 25 -271 0 -271 0 -24 -25z m389 -172 c-7 -21 -13 -50 -14 -65 0
-40 -24 -58 -80 -58 -56 0 -80 18 -80 58 -1 15 -7 44 -14 65 l-14 37 108 0
108 0 -14 -37z m-2422 -482 c47 -30 80 -69 99 -117 6 -16 37 -337 69 -714 l59
-685 26 -22 c26 -23 31 -23 271 -23 l245 0 -6 -32 c-3 -18 -9 -53 -13 -78 l-8
-45 -332 -3 c-331 -2 -332 -2 -332 19 0 11 -31 401 -70 865 -38 465 -70 850
-70 855 0 15 14 11 62 -20z m4718 20 c0 -5 -31 -390 -70 -854 -38 -464 -70
-854 -70 -866 l0 -21 -329 0 c-370 0 -333 -9 -346 80 -4 25 -9 53 -11 63 -5
16 11 17 240 17 241 0 245 0 272 23 l26 23 58 684 c32 377 63 698 69 714 19
48 52 87 99 117 48 31 62 35 62 20z m-2281 -202 c-24 -77 -24 -144 1 -315 29
-197 29 -212 -4 -241 -23 -20 -38 -23 -104 -23 -83 0 -116 14 -131 54 -5 12 1
84 15 181 29 195 30 265 5 344 l-19 61 128 0 128 0 -19 -61z m-950 -525 c-40
-44 -78 -54 -199 -54 -121 0 -159 10 -199 54 l-24 26 223 0 223 0 -24 -26z
m2080 0 c-40 -44 -78 -54 -199 -54 -121 0 -159 10 -199 54 l-24 26 223 0 223
0 -24 -26z m35 -236 c24 -22 30 -47 86 -388 33 -201 63 -377 66 -392 5 -26 3
-27 -103 -62 -399 -129 -770 -128 -1157 4 -123 41 -209 41 -332 0 -387 -132
-755 -133 -1157 -3 -106 34 -108 35 -103 61 3 15 33 191 66 392 56 341 62 366
86 388 l25 22 1249 0 1249 0 25 -22z m-2787 -327 c-3 -15 -9 -51 -13 -80 l-7
-51 -207 0 -207 0 -7 38 c-3 20 -6 56 -6 80 l0 42 226 0 227 0 -6 -29z m3473
-13 c0 -24 -3 -60 -6 -80 l-7 -38 -207 0 -207 0 -7 51 c-4 29 -10 65 -13 80
l-5 29 226 0 226 0 0 -42z m-4061 -615 c0 -10 -46 -261 -102 -558 l-102 -540
-43 -3 -43 -3 6 33 c5 31 135 1071 135 1082 0 3 34 6 75 6 65 0 75 -2 74 -17z
m4351 11 c0 -11 130 -1051 135 -1082 l6 -33 -43 3 -43 3 -102 540 c-56 297
-102 548 -102 558 -1 15 9 17 74 17 41 0 75 -3 75 -6z m-2186 -30 c14 -5 16
-45 16 -345 l0 -339 -80 0 -80 0 0 339 c0 262 3 340 13 344 18 8 113 8 131 1z
m-1102 -539 c31 -248 59 -472 63 -498 l6 -48 -43 3 -43 3 -92 490 c-51 270
-92 499 -93 511 0 21 0 21 73 5 l72 -17 57 -449z m2278 458 c-1 -10 -42 -238
-93 -508 l-92 -490 -42 -3 -42 -3 6 53 c3 29 31 253 62 498 l56 444 50 12 c75
18 95 17 95 -3z m-1006 -775 c49 -15 139 -100 150 -142 4 -16 6 -30 4 -32 -2
-1 -51 -13 -108 -25 -86 -19 -136 -23 -280 -23 -144 0 -194 4 -280 23 -57 12
-106 24 -108 25 -2 2 0 16 4 32 10 38 100 127 144 141 50 16 421 16 474 1z"/>
</g>
</svg>
